# xmcd
#
# Track frame offsets: 
#        150
#        13941
#        31474
#        45211
#        64544
#        82218
#        98580
#        113268
#        129063
#        143104
#
# Disc length: 2189 seconds
#
# Revision: 0
# Processed by: cddbd v1.5.2PL0 Copyright (c) Steve Scherf et al.
# Submitted via: ExactAudioCopy v0.95b4
#
DISCID=70088b0a
DTITLE=Juice Newton and Silver Spur - After the Dust Settles
DYEAR=1976
DGENRE=
TTITLE0=Slip Away
TTITLE1=If I Ever
TTITLE2=Love Me One More Time
TTITLE3=One Step Away
TTITLE4=Bye Bye Baby
TTITLE5=May Day
TTITLE6=Good Time To Say Goodbye
TTITLE7=Blue
TTITLE8=(All I Want To Do Is) Feel Good
TTITLE9=Sailor Song
EXTD=
EXTT0=
EXTT1=
EXTT2=
EXTT3=
EXTT4=
EXTT5=
EXTT6=
EXTT7=
EXTT8=
EXTT9=
PLAYORDER=
